<svg xmlns="http://www.w3.org/2000/svg" xmlns:xlink="http://www.w3.org/1999/xlink" width="33" height="33" viewBox="0 0 33 33">
  <defs>
    <style>
      .cls-1 {
        fill: url(#linear-gradient);
      }

      .cls-2 {
        fill: url(#linear-gradient-2);
      }
    </style>
    <linearGradient id="linear-gradient" y1="0.5" x2="1" y2="0.5" gradientUnits="objectBoundingBox">
      <stop offset="0" stop-color="#d9e021"/>
      <stop offset="1" stop-color="#8cc63f"/>
    </linearGradient>
    <linearGradient id="linear-gradient-2" x1="0" y1="0.5" x2="1" y2="0.5" xlink:href="#linear-gradient"/>
  </defs>
  <g id="Group_10" data-name="Group 10" transform="translate(-1167.426 -984.469)">
    <path id="Path_16" data-name="Path 16" class="cls-1" d="M1191.986,995.839a.874.874,0,0,1,.32.87c-.05.32-.32.43-.55.56-1.1.67-2.2,1.33-3.3,2-1.3.77-2.61,1.54-3.9,2.33a1.041,1.041,0,0,1-1.17.01q-2.01-1.2-4-2.42c-1.03-.61-2.06-1.22-3.09-1.84-.14-.08-.27-.19-.41-.27a.537.537,0,0,1-.3-.57.718.718,0,0,1,1.04-.72,3.886,3.886,0,0,1,.61.31c2.14,1.29,4.28,2.57,6.41,3.87.27.17.45.06.65-.07,1.67-.99,3.33-1.99,5-2.98.62-.37,1.24-.73,1.86-1.09A.676.676,0,0,1,1191.986,995.839Z"/>
    <path id="Path_17" data-name="Path 17" class="cls-2" d="M1183.926,984.469a16.5,16.5,0,1,0,16.5,16.5A16.5,16.5,0,0,0,1183.926,984.469Zm10.67,22.52a4.461,4.461,0,0,1-.09.81.942.942,0,0,1-1.02.85q-2.46.03-4.92.03c-1.55.01-3.1,0-4.65,0v-.02h-9.43a1.092,1.092,0,0,1-1.19-1.15c-.03-.61-.03-1.22-.03-1.83v-10.12q0-.51.03-1.02a1.053,1.053,0,0,1,1.01-1.04c.31-.02.61-.03.92-.03h17.98c.98.01,1.39.41,1.39,1.4Z"/>
    <g id="Group_9" data-name="Group 9">
      <path id="Path_18" data-name="Path 18" class="cls-1" d="M1192.306,996.709c-.05.32-.32.43-.55.56-1.1.67-2.2,1.33-3.3,2-1.3.77-2.61,1.54-3.9,2.33a1.041,1.041,0,0,1-1.17.01q-2.01-1.2-4-2.42c-1.03-.61-2.06-1.22-3.09-1.84-.14-.08-.27-.19-.41-.27a.537.537,0,0,1-.3-.57.718.718,0,0,1,1.04-.72,3.886,3.886,0,0,1,.61.31c2.14,1.29,4.28,2.57,6.41,3.87.27.17.45.06.65-.07,1.67-.99,3.33-1.99,5-2.98.62-.37,1.24-.73,1.86-1.09a.676.676,0,0,1,.83.01A.874.874,0,0,1,1192.306,996.709Z"/>
    </g>
  </g>
</svg>
