<svg xmlns="http://www.w3.org/2000/svg" xmlns:xlink="http://www.w3.org/1999/xlink" width="32.419" height="32.219" viewBox="0 0 32.419 32.219">
  <defs>
    <style>
      .cls-1 {
        fill: url(#linear-gradient);
      }
    </style>
    <linearGradient id="linear-gradient" y1="0.5" x2="1" y2="0.5" gradientUnits="objectBoundingBox">
      <stop offset="0" stop-color="#d9e021"/>
      <stop offset="1" stop-color="#8cc63f"/>
    </linearGradient>
  </defs>
  <path id="Path_12" data-name="Path 12" class="cls-1" d="M1004.628,998.69c-.224-.016-.384-.039-.543-.038-1.212,0-2.424,0-3.636.019-.28,0-.369-.071-.357-.357.041-.973.019-1.95.088-2.92a2.04,2.04,0,0,1,2.013-2.106c.7-.083,1.419-.069,2.13-.1.123-.005.247,0,.4,0V989a21.314,21.314,0,0,0-5.126-.1,5.223,5.223,0,0,0-4.566,4.763c-.188,1.529-.123,3.089-.172,4.634,0,.109,0,.217,0,.37h-4.11c0,.617,0,1.187,0,1.758-.005.887,0,1.775-.03,2.661-.01.291.058.4.361.4,1.137,0,2.274.028,3.41.02.307,0,.4.05.386.391-.038.848-.015,1.7-.014,2.548q.008,4.011.013,8.022a1.364,1.364,0,0,1-.035.217A16.22,16.22,0,0,1,998.5,982.5c8.856.549,15.3,8.332,15.215,15.93a16.132,16.132,0,0,1-13.593,16.215v-11.091c.223-.016.455-.047.686-.047.862,0,1.725,0,2.586.027.329.009.5-.086.549-.433.183-1.272.385-2.541.582-3.81C1004.554,999.109,1004.587,998.928,1004.628,998.69Z" transform="translate(-981.298 -982.469)"/>
</svg>
