<svg xmlns="http://www.w3.org/2000/svg" xmlns:xlink="http://www.w3.org/1999/xlink" width="32.492" height="32.479" viewBox="0 0 32.492 32.479">
  <defs>
    <style>
      .cls-1 {
        fill: url(#linear-gradient);
      }
    </style>
    <linearGradient id="linear-gradient" y1="0.5" x2="1" y2="0.5" gradientUnits="objectBoundingBox">
      <stop offset="0" stop-color="#d9e021"/>
      <stop offset="1" stop-color="#8cc63f"/>
    </linearGradient>
  </defs>
  <path id="Path_13" data-name="Path 13" class="cls-1" d="M1060.046,1017.522a16.238,16.238,0,1,1,15.823-17.04A16.405,16.405,0,0,1,1060.046,1017.522Zm-.619-6.893c1.655-.048,3.118-.06,4.577-.142a5.033,5.033,0,0,0,3.309-1.392,5.209,5.209,0,0,0,1.532-3.6,75.729,75.729,0,0,0-.024-8.616,4.824,4.824,0,0,0-2.284-4,5.923,5.923,0,0,0-3.261-.821c-2.562-.019-5.124-.027-7.685.013a5.213,5.213,0,0,0-3.423,1.218,5.3,5.3,0,0,0-1.772,4.1c-.03,1.087-.028,2.175-.017,3.262.019,1.8-.035,3.6.107,5.392a4.7,4.7,0,0,0,4.268,4.371C1056.365,1010.586,1058,1010.569,1059.427,1010.629Z" transform="translate(-1043.401 -985.052)"/>
</svg>
