<svg xmlns="http://www.w3.org/2000/svg" width="374.398" height="48.802" viewBox="0 0 374.398 48.802">
  <defs>
    <style>
      .cls-1 {
        fill: #fff;
      }
    </style>
  </defs>
  <g id="Group_2" data-name="Group 2" transform="translate(-769.136 -639.267)">
    <g id="Group_1" data-name="Group 1">
      <path id="Path_2" data-name="Path 2" class="cls-1" d="M780.019,677.734h26.42v9.445h-37.3V639.267h36.551v9.377H780.019v9.719h24.3V667.4h-24.3Z"/>
      <path id="Path_3" data-name="Path 3" class="cls-1" d="M836.967,653.367H848.4l-14.3,33.812H823.14l-14.373-33.812h11.7l4.038,10.2,4.175,12.252,4.176-12.252Z"/>
      <path id="Path_4" data-name="Path 4" class="cls-1" d="M858.081,685.708a15.684,15.684,0,0,1-6.467-6.2,20.026,20.026,0,0,1,0-18.48,15.7,15.7,0,0,1,6.467-6.2,22.878,22.878,0,0,1,19.679,0,15.661,15.661,0,0,1,6.5,6.2,20.035,20.035,0,0,1,0,18.48,15.649,15.649,0,0,1-6.5,6.2,22.878,22.878,0,0,1-19.679,0Zm15.572-9.275a9.758,9.758,0,0,0,0-12.32,7.424,7.424,0,0,0-5.749-2.4,7.344,7.344,0,0,0-5.682,2.4,9.758,9.758,0,0,0,0,12.32,7.34,7.34,0,0,0,5.682,2.4A7.421,7.421,0,0,0,873.653,676.433Z"/>
      <path id="Path_5" data-name="Path 5" class="cls-1" d="M899.559,685.776a15.48,15.48,0,0,1-6.5-6.126,19.837,19.837,0,0,1,.035-18.583,16.128,16.128,0,0,1,6.5-6.229,20.233,20.233,0,0,1,9.652-2.224,19.606,19.606,0,0,1,7.186,1.335,18.041,18.041,0,0,1,6.092,3.935l-5.955,6.5a9.628,9.628,0,0,0-6.776-2.67,8.086,8.086,0,0,0-6.023,2.361,9.459,9.459,0,0,0-.035,12.389,8.058,8.058,0,0,0,6.058,2.362,9.7,9.7,0,0,0,7.119-2.944L923,682.319a18.615,18.615,0,0,1-13.552,5.613A21.433,21.433,0,0,1,899.559,685.776Z"/>
      <path id="Path_6" data-name="Path 6" class="cls-1" d="M962.7,653.367v33.812h-9.308l-.684-4.038a14.5,14.5,0,0,1-11.226,4.722,15.819,15.819,0,0,1-8.385-2.224,15.248,15.248,0,0,1-5.715-6.229,21.361,21.361,0,0,1,0-18.275,15.259,15.259,0,0,1,5.715-6.228,15.829,15.829,0,0,1,8.385-2.225,16.222,16.222,0,0,1,6.3,1.2,13.7,13.7,0,0,1,4.929,3.457l.684-3.97Zm-12.867,23.1a9.622,9.622,0,0,0,0-12.389,7.7,7.7,0,0,0-5.818-2.361,7.531,7.531,0,0,0-5.784,2.4,9.643,9.643,0,0,0,0,12.32,7.527,7.527,0,0,0,5.784,2.4A7.694,7.694,0,0,0,949.834,676.467Z"/>
      <path id="Path_7" data-name="Path 7" class="cls-1" d="M987.956,639.267h11.226v37.782h24.093v10.13H987.956Z"/>
      <path id="Path_8" data-name="Path 8" class="cls-1" d="M1063.384,653.367v33.812h-9.309l-.684-4.038a14.5,14.5,0,0,1-11.226,4.722,15.812,15.812,0,0,1-8.384-2.224,15.248,15.248,0,0,1-5.715-6.229,21.351,21.351,0,0,1,0-18.275,15.259,15.259,0,0,1,5.715-6.228,15.822,15.822,0,0,1,8.384-2.225,16.223,16.223,0,0,1,6.3,1.2,13.694,13.694,0,0,1,4.928,3.457l.684-3.97Zm-12.868,23.1a9.622,9.622,0,0,0,0-12.389,7.7,7.7,0,0,0-5.818-2.361,7.527,7.527,0,0,0-5.783,2.4,9.639,9.639,0,0,0,0,12.32,7.523,7.523,0,0,0,5.783,2.4A7.693,7.693,0,0,0,1050.516,676.467Z"/>
      <path id="Path_9" data-name="Path 9" class="cls-1" d="M1101.1,654.907a15.182,15.182,0,0,1,5.749,6.228,21.36,21.36,0,0,1,0,18.275,15.171,15.171,0,0,1-5.749,6.229,16,16,0,0,1-8.419,2.224,14.5,14.5,0,0,1-11.226-4.722l-.684,4.038h-9.308V639.267h10.746v17.316a14.9,14.9,0,0,1,10.472-3.9A16.01,16.01,0,0,1,1101.1,654.907Zm-5.134,21.56a9.622,9.622,0,0,0,0-12.389,7.7,7.7,0,0,0-5.818-2.361,7.531,7.531,0,0,0-5.784,2.4,9.643,9.643,0,0,0,0,12.32,7.527,7.527,0,0,0,5.784,2.4A7.693,7.693,0,0,0,1095.963,676.467Z"/>
      <path id="Path_10" data-name="Path 10" class="cls-1" d="M1112.185,683.551l4.107-7.392a20.529,20.529,0,0,0,5.715,2.327,26.3,26.3,0,0,0,6.468.822q4.449,0,4.449-2.4a1.974,1.974,0,0,0-1.232-1.848,11.785,11.785,0,0,0-4.106-.821q-6.435-.342-10.233-3.217a9.006,9.006,0,0,1-3.8-7.529,9.427,9.427,0,0,1,4.107-8.043q4.105-2.977,11.088-2.977a29.27,29.27,0,0,1,7.563.958,21.163,21.163,0,0,1,6.195,2.669l-4.175,7.187a18.067,18.067,0,0,0-9.1-2.19q-5.2,0-5.2,2.464a1.711,1.711,0,0,0,1.061,1.575,11.09,11.09,0,0,0,3.593.821q7.254.549,11.055,3.285a8.909,8.909,0,0,1,3.8,7.666,9.509,9.509,0,0,1-4.176,8.18q-4.176,2.976-11.567,2.977A27.06,27.06,0,0,1,1112.185,683.551Z"/>
    </g>
  </g>
</svg>
