<svg xmlns="http://www.w3.org/2000/svg" xmlns:xlink="http://www.w3.org/1999/xlink" width="32.492" height="32.467" viewBox="0 0 32.492 32.467">
  <defs>
    <style>
      .cls-1 {
        fill: url(#linear-gradient);
      }
    </style>
    <linearGradient id="linear-gradient" y1="0.5" x2="1" y2="0.5" gradientUnits="objectBoundingBox">
      <stop offset="0" stop-color="#d9e021"/>
      <stop offset="1" stop-color="#8cc63f"/>
    </linearGradient>
  </defs>
  <path id="Path_11" data-name="Path 11" class="cls-1" d="M1105.541,1000.824a16.246,16.246,0,1,1,16.245,16.3A16.392,16.392,0,0,1,1105.541,1000.824Zm16-2.872a10.843,10.843,0,0,1-7.7-3.941,3.738,3.738,0,0,0,.984,4.947c-.571.234-1.023-.2-1.593-.287a4.006,4.006,0,0,0,2.809,3.8h-1.491a3.865,3.865,0,0,0,3.476,2.686,6.209,6.209,0,0,1-2.575,1.287c-.927.2-1.876.284-2.856.425.425.215.813.431,1.218.612a10.882,10.882,0,0,0,5.142.91,10.456,10.456,0,0,0,9.564-7.069,12.229,12.229,0,0,0,.683-3.778,1.073,1.073,0,0,1,.25-.622c.417-.463.879-.886,1.316-1.331a3.056,3.056,0,0,0,.264-.389l-1.882.491a5.067,5.067,0,0,0,1.38-2c-.217.072-.378.119-.534.18-.325.128-.645.268-.97.393-.515.2-1.026.349-1.418-.228a.1.1,0,0,0-.03-.023,3.856,3.856,0,0,0-5.953,2.382A8.7,8.7,0,0,0,1121.544,997.952Z" transform="translate(-1105.541 -984.659)"/>
</svg>
